<?xml version="1.0" standalone="no"?>
<!DOCTYPE svg PUBLIC "-//W3C//DTD SVG 20010904//EN"
 "http://www.w3.org/TR/2001/REC-SVG-20010904/DTD/svg10.dtd">
<svg version="1.0" xmlns="http://www.w3.org/2000/svg"
 width="1108.000000pt" height="1108.000000pt" viewBox="0 0 1108.000000 1108.000000"
 preserveAspectRatio="xMidYMid meet">
<metadata>
Created by potrace 1.14, written by Peter Selinger 2001-2017
</metadata>
<g transform="translate(0.000000,1108.000000) scale(0.100000,-0.100000)"
fill="#000000" stroke="none">
<path d="M9090 9829 c-30 -3 -72 -5 -93 -5 -20 1 -37 -1 -37 -4 0 -3 -24 -6
-53 -7 -70 -2 -222 -11 -222 -13 0 -1 -23 -3 -51 -5 -48 -3 -112 -8 -239 -21
-27 -3 -57 -7 -65 -9 -8 -2 -40 -7 -70 -10 -30 -3 -62 -7 -70 -9 -8 -1 -37 -7
-65 -11 -27 -5 -52 -10 -55 -10 -3 -1 -23 -5 -45 -9 -22 -5 -72 -17 -112 -28
-40 -10 -80 -21 -90 -23 -10 -2 -30 -8 -44 -13 -15 -6 -30 -8 -33 -5 -3 4 -6
2 -6 -3 0 -5 -8 -10 -18 -11 -87 -7 -697 -288 -834 -384 -14 -11 -31 -19 -37
-19 -6 0 -11 -4 -11 -8 0 -5 -15 -16 -32 -25 -36 -18 -70 -39 -78 -47 -3 -3
-38 -27 -79 -54 -40 -27 -79 -56 -86 -63 -8 -7 -16 -13 -20 -13 -3 0 -49 -33
-103 -72 -121 -91 -131 -99 -151 -120 -8 -10 -20 -18 -25 -18 -4 0 -25 -15
-46 -32 -37 -33 -117 -101 -173 -148 -17 -14 -55 -49 -85 -77 -30 -29 -56 -53
-58 -53 -7 0 -192 -196 -240 -256 -89 -109 -193 -213 -221 -220 -17 -5 -31 0
-47 15 -12 11 -25 21 -29 21 -7 0 -233 224 -298 295 -56 62 -216 213 -307 290
-45 38 -82 73 -82 77 0 5 -5 8 -11 8 -8 0 -98 68 -119 90 -3 3 -34 27 -70 53
-36 27 -72 54 -81 62 -9 7 -59 41 -110 76 -52 35 -98 67 -104 72 -51 41 -303
191 -480 286 -44 23 -84 47 -90 52 -5 5 -15 9 -23 9 -8 0 -26 9 -40 19 -15 10
-31 20 -37 21 -10 3 -24 9 -155 69 -36 16 -96 41 -135 56 -108 41 -219 82
-230 84 -5 1 -46 13 -90 26 -44 13 -102 29 -130 35 -92 18 -110 22 -160 31
-72 14 -131 22 -250 33 -232 24 -435 24 -590 1 -131 -19 -152 -57 -171 -314
-10 -149 -10 -261 1 -261 7 0 6 -3 0 -8 -6 -4 -11 -29 -11 -57 -2 -119 -25
-265 -47 -292 -5 -7 -6 -13 -3 -13 11 0 -28 -52 -66 -89 -29 -28 -162 -101
-185 -101 -12 0 -192 -68 -233 -87 -19 -10 -37 -17 -40 -18 -14 -1 -128 -77
-148 -98 -30 -32 -34 -74 -47 -422 -12 -361 -26 -1499 -24 -2045 0 -207 1
-173 -1 -390 -1 -96 -1 -179 0 -185 1 -5 2 -14 1 -20 -1 -5 -2 -174 -1 -375 0
-201 1 -369 1 -375 0 -5 -2 -97 -3 -203 -2 -105 1 -192 5 -192 5 0 5 -4 2 -10
-8 -13 -9 -216 -1 -229 4 -6 4 -11 -1 -11 -4 0 -8 -88 -8 -195 0 -107 4 -195
8 -195 5 0 5 -5 2 -10 -8 -13 -9 -1059 -1 -1067 3 -3 1 -13 -3 -22 -11 -21 4
-62 21 -56 7 2 31 6 53 9 22 3 49 7 60 10 11 2 40 7 65 10 25 3 56 8 70 11 14
3 47 7 73 10 26 2 51 6 55 9 4 2 32 7 62 11 30 5 64 9 75 11 11 1 20 3 20 4 0
1 9 3 20 5 11 2 36 6 55 10 55 9 92 16 130 22 19 3 40 9 46 14 6 5 13 7 16 4
2 -3 42 2 89 10 46 8 104 18 129 21 25 3 53 8 62 9 9 2 48 7 85 10 37 4 79 8
93 11 14 2 77 6 140 9 63 3 127 7 142 9 16 2 28 -2 28 -8 0 -7 3 -8 8 -1 9 14
175 14 184 0 5 -7 8 -7 8 0 0 18 354 -1 580 -31 25 -3 59 -7 75 -10 17 -2 62
-8 100 -14 39 -5 86 -12 105 -14 19 -3 35 -5 35 -6 0 -3 43 -10 82 -12 24 -2
43 -7 43 -12 0 -5 2 -7 5 -4 6 6 50 -2 210 -37 88 -20 88 -20 160 -39 33 -9
69 -19 80 -21 12 -3 48 -14 80 -25 33 -11 67 -22 75 -25 54 -14 260 -97 390
-157 36 -16 66 -29 67 -29 2 0 65 -30 140 -68 235 -117 400 -183 538 -217 50
-13 168 -2 191 17 6 5 13 6 16 3 3 -3 23 2 43 10 21 9 48 18 60 20 12 2 42 13
66 24 25 11 58 24 74 28 17 4 36 11 43 17 6 5 12 6 12 1 0 -5 4 -4 8 1 4 6 34
21 67 34 33 13 89 37 125 54 152 69 182 81 193 79 4 -1 7 3 7 10 0 6 3 9 6 5
4 -3 24 3 45 14 22 11 39 17 39 13 0 -4 6 -2 13 3 6 5 35 18 62 27 28 10 64
24 80 31 37 15 136 49 150 51 6 0 24 7 40 13 17 7 37 14 45 16 8 2 15 4 15 5
0 1 7 3 16 5 9 1 48 12 85 24 144 44 247 71 252 66 3 -3 11 0 19 7 7 6 16 8
20 5 3 -4 11 -2 18 3 6 5 29 12 50 16 20 3 47 8 59 10 125 27 167 35 201 39
22 3 50 7 62 9 11 3 43 8 70 12 26 3 57 8 68 10 10 2 49 6 85 10 36 3 76 7 90
9 152 26 884 25 1005 0 11 -2 54 -7 95 -11 117 -10 186 -19 242 -30 15 -3 39
-7 55 -9 27 -3 52 -8 126 -21 17 -3 46 -8 62 -11 56 -9 70 -11 140 -26 39 -8
88 -18 110 -21 22 -3 55 -8 73 -11 17 -3 47 -7 65 -10 17 -3 75 -8 128 -11
l96 -6 7 26 c4 15 9 70 12 124 10 183 12 217 14 222 1 3 1 10 0 15 -5 22 -5
85 0 85 3 0 6 73 6 163 1 89 5 362 9 607 11 698 14 1133 14 2315 1 1438 -7
1998 -33 2170 -3 22 -8 65 -11 95 -3 30 -8 75 -11 100 -3 25 -7 56 -9 70 -2
14 -3 28 -4 32 -1 3 -16 11 -33 17 -18 5 -100 31 -183 56 -82 26 -159 50 -170
55 -11 4 -60 20 -110 35 -219 66 -251 100 -261 269 -2 39 -6 87 -8 106 -2 19
-7 76 -10 125 -4 50 -9 101 -11 115 -3 14 -7 61 -10 105 -2 44 -7 103 -10 130
-6 54 -10 98 -20 220 -4 44 -9 82 -11 85 -7 6 -49 6 -114 -1z m-7569 -1466 c0
-5 2 -15 4 -23 1 -8 5 -28 8 -45 3 -16 8 -41 11 -55 12 -64 18 -110 22 -165
11 -188 22 -567 28 -987 2 -119 7 -221 11 -227 3 -6 2 -11 -2 -11 -5 0 -7 -17
-6 -37 1 -21 5 -299 8 -618 11 -1260 22 -1639 60 -2090 4 -44 8 -97 9 -117 1
-20 4 -39 6 -42 3 -2 25 -7 50 -11 25 -3 56 -8 70 -10 79 -12 119 -18 155 -21
22 -2 54 -6 70 -9 17 -4 46 -8 65 -10 77 -9 203 -27 280 -41 14 -2 41 -7 60
-10 46 -8 65 -12 65 -14 0 -1 11 -3 25 -5 14 -2 57 -11 95 -20 39 -9 78 -18
87 -20 40 -9 254 -70 288 -83 8 -3 18 -4 23 -4 4 1 7 -3 7 -9 0 -5 4 -7 10 -4
5 3 23 -1 40 -10 16 -8 30 -13 30 -10 0 3 17 -3 38 -14 20 -10 41 -19 45 -19
29 0 387 -169 532 -252 104 -59 133 -76 177 -107 26 -18 50 -33 53 -33 10 0
299 -202 303 -212 2 -5 10 -8 18 -8 8 0 14 -4 14 -9 0 -5 15 -18 33 -30 17
-11 41 -28 52 -38 11 -10 38 -31 60 -48 22 -16 71 -59 108 -94 57 -54 65 -66
51 -74 -10 -6 -24 -5 -38 1 -18 9 -87 33 -108 38 -5 1 -9 2 -10 4 -2 1 -10 3
-18 5 -8 1 -46 12 -85 23 -70 21 -276 73 -305 77 -8 1 -26 5 -40 9 -14 3 -36
8 -50 10 -14 3 -25 5 -25 6 0 1 -11 3 -25 6 -37 6 -121 23 -150 29 -14 2 -43
7 -65 10 -22 3 -49 7 -60 9 -11 2 -42 7 -68 10 -27 4 -56 9 -65 11 -10 1 -48
6 -87 9 -38 4 -79 9 -90 12 -11 2 -47 6 -80 9 -33 3 -82 8 -110 11 -54 5 -128
10 -295 20 -167 10 -745 6 -745 -6 0 0 -31 -3 -70 -5 -38 -3 -88 -7 -110 -10
-22 -3 -60 -8 -85 -10 -25 -3 -61 -8 -79 -11 -19 -3 -55 -8 -80 -10 -26 -2
-62 -6 -81 -9 -19 -3 -62 -7 -95 -10 -33 -3 -80 -8 -105 -10 -25 -3 -96 -7
-157 -10 l-113 -5 0 252 c-2 731 -10 1709 -15 1717 -3 6 -1 12 5 16 7 4 7 12
0 25 -6 11 -6 21 -1 24 5 3 5 21 1 41 -5 24 -4 35 4 36 7 0 7 2 -1 6 -9 3 -10
10 -3 22 5 10 7 21 3 24 -9 10 -9 358 0 364 4 2 4 10 0 16 -4 7 -8 291 -10
632 -1 341 -3 947 -5 1347 -2 399 -1 728 2 730 6 5 93 43 100 44 3 0 31 12 62
27 31 15 59 27 62 27 2 0 26 10 53 22 44 19 52 23 68 27 16 4 23 7 55 23 39
19 50 21 51 11z m7893 -39 c16 -3 91 -21 165 -41 154 -40 143 -37 194 -48 24
-5 37 -13 37 -24 1 -43 -2 -568 -5 -916 -2 -214 -6 -752 -10 -1195 -9 -1239
-14 -1695 -21 -2070 -3 -190 -7 -420 -8 -512 0 -93 -3 -168 -6 -168 -3 0 -5
-39 -6 -88 -1 -72 -4 -145 -17 -329 -3 -51 -98 -59 -242 -21 -22 5 -42 10 -45
11 -3 0 -21 4 -40 9 -19 5 -45 11 -58 13 -12 2 -53 8 -90 14 -37 6 -87 13
-112 16 -25 2 -74 8 -110 12 -36 4 -89 7 -117 7 -29 1 -53 3 -53 7 0 3 -10 5
-22 6 -13 0 -106 4 -208 8 -285 12 -662 7 -800 -10 -19 -3 -57 -7 -85 -9 -46
-4 -82 -9 -145 -21 -14 -2 -45 -7 -70 -10 -25 -3 -92 -15 -148 -26 -57 -10
-108 -17 -112 -14 -5 3 -12 0 -15 -6 -4 -5 -13 -8 -20 -5 -7 2 -16 2 -20 -2
-4 -4 -16 -7 -28 -8 -12 0 -32 -4 -45 -8 -12 -4 -34 -9 -50 -11 -15 -2 -28 -4
-29 -6 -4 -2 -80 -19 -118 -25 -5 -1 -12 -3 -15 -4 -3 -1 -12 -3 -21 -5 -9 -1
-72 -17 -140 -34 -68 -17 -133 -33 -144 -35 -11 -2 -40 -9 -65 -16 -25 -7 -52
-13 -60 -15 -8 -2 -41 -10 -72 -18 -32 -8 -58 -13 -58 -10 0 3 -6 1 -12 -4 -7
-5 -20 -9 -28 -8 -8 1 -32 -5 -52 -12 -21 -6 -38 -10 -38 -8 0 2 -15 -1 -32
-6 -18 -5 -55 -12 -81 -15 -46 -6 -48 -5 -39 12 16 29 212 214 318 299 27 21
51 42 54 45 15 17 280 210 289 210 5 0 11 4 13 8 2 5 37 31 78 58 41 27 77 52
78 57 2 4 7 7 12 7 5 0 59 31 122 68 62 38 120 71 128 75 8 4 62 32 119 62 57
30 110 55 118 55 7 0 13 5 13 10 0 6 5 10 11 10 5 0 36 12 67 26 133 61 416
166 450 167 6 0 12 5 12 10 0 6 3 8 6 4 4 -3 22 0 40 8 19 8 34 12 34 10 0 -2
15 1 33 7 17 5 41 11 52 14 11 2 56 12 100 23 44 11 98 22 120 25 22 4 49 9
59 12 10 4 35 8 55 9 20 2 36 4 36 5 0 3 89 12 127 14 21 0 38 3 38 6 0 3 10
5 23 6 35 2 142 12 142 14 0 2 33 7 95 14 30 3 66 8 80 10 61 11 126 22 151
25 14 2 49 40 49 53 0 8 3 18 7 22 4 4 8 21 9 39 1 18 3 32 4 32 3 0 7 52 14
185 6 101 10 740 17 2715 2 292 6 537 9 545 4 8 4 24 0 35 -4 11 -3 30 1 43 7
17 6 21 -3 16 -6 -4 -8 -3 -5 4 4 5 9 84 12 174 8 270 23 403 48 420 6 3 20 4
31 2 12 -2 34 -7 50 -10z"/>
</g>
</svg>
